<?xml version="1.0" encoding="utf-8"?>
<!-- Generator: Adobe Illustrator 21.1.0, SVG Export Plug-In . SVG Version: 6.00 Build 0)  -->
<svg version="1.1" id="Слой_1" xmlns="http://www.w3.org/2000/svg" xmlns:xlink="http://www.w3.org/1999/xlink" x="0px" y="0px"
	 viewBox="0 0 1600 900" style="enable-background:new 0 0 1600 900;" xml:space="preserve">
<style type="text/css">
	.st0{fill:#FDDC03;}
	.st1{fill:#FFFFFF;}
	.st2{fill:#DA44D0;}
	.st3{fill:#6C19D9;}
	.st4{fill:#7732E1;}
	.st5{fill:#823BEB;}
	.st6{fill:#DC44D2;}
	.st7{opacity:0.4;fill:#DC44D2;}
	.st8{fill:#923CFF;}
	.st9{fill:#F1A901;}
	.st10{fill:#DEE3F3;}
	.st11{fill:#EBEDF7;}
	.st12{fill:#E7EAF6;}
	.st13{fill:#B17EFD;}
	.st14{fill:#CBABFD;}
	.st15{fill:#FFDE00;}
	.st16{fill:none;}
	.st17{enable-background:new    ;}
	.st18{clip-path:url(#SVGID_2_);}
	.st19{fill:#EFA702;}
	.st20{clip-path:url(#SVGID_4_);}
	.st21{clip-path:url(#SVGID_6_);}
	.st22{fill:#FDE500;}
	.st23{fill:#B37FFF;}
</style>
<rect transform="matrix(-1 -1.224647e-16 1.224647e-16 -1 1600 900)" class="st0" width="1600" height="900"/>
<g>
	<path id="cloud_93_" class="st1" d="M580.5,489.5c22.7-61.5,77.2-108.5,142.4-112.8c21.3-77.7,82.8-157,151.3-189.6
		c71.9-34.2,127.1-5.2,133.1,64.7c0.2-0.1,0.5-0.2,0.7-0.3c50.8-24.2,88.5,1.6,84.2,57.5c38.5-6.5,64.3,19.8,60.5,67.3
		c-4.6,57.3-50.3,123.8-102.2,148.5L758.6,663.8C688.7,709,515.5,665.7,580.5,489.5z"/>
	<polygon class="st2" points="1153.6,255.4 1146.7,758.1 1200.5,674.6 1274,460.6 1277.4,288 	"/>
	<rect x="1308" y="342.1" width="77.9" height="424.4"/>
	<polygon points="1197.2,738.7 1266.4,703.7 1266.4,533.6 1197.2,543.8 	"/>
	<polygon class="st2" points="1058.5,430.4 1058.5,810.5 1175.1,881.3 1183.7,522.8 1172.4,508.2 1178,494.6 1104.8,454.1 	"/>
	<polygon class="st2" points="1195.5,839.8 1205.6,900 1267.9,900 1267.9,813.3 1146.1,753.3 1146.9,815.3 	"/>
	<polygon points="1435.8,900 1434.4,724.9 1267.9,814.9 1267.9,900 	"/>
	<g>
		<g>
			<path class="st3" d="M1075.3,639.3c-27.9,0-51.3-10.7-51.3-23.5v-39.5h102.7v38.9C1126.6,628,1103.2,639.3,1075.3,639.3z"/>
			<ellipse class="st0" cx="1075.3" cy="576.3" rx="51.3" ry="25.1"/>
			<path class="st4" d="M1075.3,687.6c-27.9,0-51.3-10.7-51.3-23.5v-39.1c9.4,9.6,28.6,19,51.3,19c22.7,0,41.9-9.3,51.3-19v38.6
				C1126.6,676.3,1103.2,687.6,1075.3,687.6z"/>
			<path class="st5" d="M1075.3,693.6c22.7,0,41.9-10.8,51.3-20.4v38.5c0,12.8-23.4,24.1-51.3,24.1c-27.9,0-51.3-10.7-51.3-23.5
				v-39.1C1033.4,682.8,1052.6,693.6,1075.3,693.6z"/>
			<ellipse class="st6" cx="1035.4" cy="609.7" rx="2.3" ry="4.3"/>
			<ellipse class="st6" cx="1035.4" cy="656" rx="2.3" ry="4.3"/>
			<ellipse class="st7" cx="1035.4" cy="706.2" rx="2.3" ry="4.3"/>
			<path class="st8" d="M1075.3,687.6c23.9,0,44.5-8.3,49.9-18.7c0.9,1.5,1.4,3,1.4,4.6v0.1c0,2.2-0.7,4.5-2.7,6.3
				c-10.1,8.3-27.9,13.7-48.7,13.7c0,0,0,0,0,0c-20.7,0-38.5-5.4-48.6-13.7c-2.4-2.6-2.7-4.2-2.7-6.4c0-1.5,0.4-3,1.3-4.4
				C1030.4,679.6,1051.2,687.6,1075.3,687.6z"/>
			<path class="st8" d="M1075.3,639.3c23.9,0,44.5-8.3,49.9-18.7c0.9,1.5,1.4,3,1.4,4.6v0.1c0,2.2-0.7,4.5-2.7,6.3
				c-10.1,8.3-27.9,13.7-48.7,13.7c0,0,0,0,0,0c-20.7,0-38.5-5.4-48.6-13.7c-2.4-2.6-2.7-4.2-2.7-6.4c0-1.5,0.4-3,1.3-4.4
				C1030.4,631.3,1051.2,639.3,1075.3,639.3z"/>
		</g>
		<g>
			<path class="st4" d="M1075.3,784.2c-27.9,0-51.3-10.7-51.3-23.5v-39.1c9.4,9.6,28.6,19,51.3,19c22.7,0,41.9-9.3,51.3-19v38.6
				C1126.6,772.9,1103.2,784.2,1075.3,784.2z"/>
			<path class="st5" d="M1075.3,790.2c22.7,0,41.9-10.8,51.3-20.4v38.5c0,12.8-23.4,24.1-51.3,24.1c-27.9,0-51.3-10.7-51.3-23.5
				v-39.1C1033.4,779.4,1052.6,790.2,1075.3,790.2z"/>
			<ellipse class="st6" cx="1035.4" cy="752.6" rx="2.3" ry="4.3"/>
			<ellipse class="st7" cx="1035.4" cy="802.8" rx="2.3" ry="4.3"/>
			<path class="st8" d="M1075.3,784.2c23.9,0,44.5-8.3,49.9-18.7c0.9,1.5,1.4,3,1.4,4.6v0.1c0,2.2-0.7,4.5-2.7,6.3
				c-10.1,8.3-27.9,13.7-48.7,13.7c0,0,0,0,0,0c-20.7,0-38.5-5.4-48.6-13.7c-2.4-2.6-2.7-4.2-2.7-6.4c0-1.5,0.4-3,1.3-4.4
				C1030.4,776.2,1051.2,784.2,1075.3,784.2z"/>
			<path class="st8" d="M1075.3,735.9c23.9,0,44.5-8.3,49.9-18.7c0.9,1.5,1.4,3,1.4,4.6v0.1c0,2.2-0.7,4.5-2.7,6.3
				c-10.1,8.3-27.9,13.7-48.7,13.7c0,0,0,0,0,0c-20.7,0-38.5-5.4-48.6-13.7c-2.4-2.6-2.7-4.2-2.7-6.4c0-1.5,0.4-3,1.3-4.4
				C1030.4,727.9,1051.2,735.9,1075.3,735.9z"/>
		</g>
	</g>
	<g>
		<g>
			<g>
				<path class="st0" d="M470.5,657.6l-8.4,220.5c-0.2,5.9,3.8,8.4,9.1,5.7L688,769.6c5.2-2.7,9.6-9.7,9.9-15.6l8.4-220.5
					L470.5,657.6z"/>
				<path class="st9" d="M481,623.4c-5.2,2.7-9.6,9.7-9.9,15.6l-0.7,18.6l235.7-124.1l0.7-18.6c0.2-5.9-3.8-8.4-9.1-5.7L481,623.4z"
					/>
			</g>
		</g>
		<polygon class="st1" points="485,785.5 683.5,681.1 688.1,563.8 489.6,668.2 		"/>
		<polygon class="st9" points="481.3,878.8 563.8,835.5 567.1,752.9 484.6,796.3 		"/>
		<polygon class="st0" points="575.5,828.2 679.9,773.3 683.1,691.9 578.7,746.8 		"/>
		<path class="st9" d="M504.1,727.5c11.6-6.1,12.4-50.5,33-61.3c20.6-10.8,20.3,46.6,33.7,39.5c13.4-7,14.7-49,31.5-57.8
			c16.8-8.8,14.5,40.2,28.2,33c13.7-7.2,17.9-43,31.8-50.3c13.9-7.3,17.9,16.2,22.6,13.7l-1.5,36.7L485,785.5l2.8-71.6
			C487.8,713.9,492.5,733.6,504.1,727.5z"/>
		<polygon class="st0" points="651.4,629.5 669.3,620.1 669.5,613.9 651.7,623.3 		"/>
		<polygon class="st0" points="524,669.9 541.8,660.5 542.1,654.3 524.2,663.7 		"/>
		<polygon class="st9" points="587.5,652.1 605.3,642.7 605.6,636.5 587.7,645.9 		"/>
		<polygon class="st0" points="536,804.7 557.6,793.3 558.5,769.5 536.9,780.9 		"/>
		<polygon class="st0" points="490.2,808.7 527.6,789 527.8,785.7 490.4,805.4 		"/>
		<polygon class="st9" points="585.2,760.4 622.6,740.7 622.7,737.4 585.4,757.1 		"/>
		<polygon class="st9" points="584.9,769 622.3,749.3 622.4,746 585,765.7 		"/>
		<polygon class="st9" points="584.5,777.6 621.9,757.9 622.1,754.6 584.7,774.3 		"/>
		<polygon class="st9" points="584.2,786.1 621.6,766.5 621.7,763.2 584.3,782.9 		"/>
		<polygon class="st9" points="583.9,794.7 621.2,775.1 621.4,771.8 584,791.4 		"/>
		<polygon class="st0" points="490,815.4 531.8,793.4 531.9,790.3 490.1,812.3 		"/>
		<polygon class="st0" points="489.7,822.3 531.5,800.3 531.7,797.2 489.8,819.2 		"/>
		<polygon class="st0" points="534.8,834.3 556.4,822.9 557.4,799.1 535.7,810.5 		"/>
		<polygon class="st0" points="489.1,838.1 530.9,816.1 531,813 489.2,835 		"/>
		<polygon class="st0" points="488.8,845 530.6,823 530.8,819.9 488.9,841.9 		"/>
		<polygon class="st0" points="488.5,851.9 530.4,829.9 530.5,826.8 488.7,848.8 		"/>
		<path class="st9" d="M632.9,749.9c0.5-12.3,9.7-26.9,20.6-32.6c10.9-5.7,19.3-0.4,18.8,11.9c-0.5,12.3-9.7,26.9-20.6,32.6
			C640.8,767.5,632.4,762.2,632.9,749.9z"/>
		<path class="st1" d="M653.5,717.2l-0.9,22.3l-19.7,10.4C633.4,737.6,642.6,723,653.5,717.2z"/>
	</g>
	<g id="XMLID_180_">
		<polygon id="XMLID_183_" class="st10" points="667.6,416.3 686.6,451.4 726.5,452.6 707.5,417.4 		"/>
		<polygon id="XMLID_182_" class="st11" points="667.6,416.3 688.6,382.2 728.5,383.4 707.5,417.4 		"/>
		<polygon id="XMLID_181_" class="st12" points="726.5,452.6 747.5,418.6 728.5,383.4 707.5,417.4 		"/>
	</g>
	<polygon class="st1" points="660.6,683.4 726.1,651 802.6,688 821.6,754.3 791.9,818.1 677.6,702.9 	"/>
	<polygon points="1211.3,324.3 1326.1,267 1326.1,185 1210.3,250.6 	"/>
	<polygon class="st1" points="1155.2,213.4 1181.8,272.5 1206.1,245 1440.1,361.4 1500.5,330.7 1271.8,216 1326.1,185 1266.1,153.3 
			"/>
	<path class="st1" d="M1401.2,719.6c-1.7-44.8,10.7-81.2,31.2-106.7l-286.3,141.5l121.8,59.4l72.6-36.4
		C1349.6,752.4,1369.4,729.3,1401.2,719.6z"/>
	<path class="st13" d="M1208.3,771.4l59.6,29.9c0,0,167.2-90.6,166.1-91.1s-4.1-84.4-4.1-84.4l-199.8,97.9l-28.7,30.7L1208.3,771.4z
		"/>
	<polyline points="1026.1,515.6 1326.1,365.1 1326.1,326.2 1386.1,363.2 1086.1,513.2 	"/>
	<path class="st13" d="M1264.6,343l-28.1,33.7l27.5,15.8c1.8,1.1,3,3,3,5.1c0.2,12.8,0.5,46.5,0,62.3c-1.3,44.1-1.1,255.4-1.1,255.4
		l51.1-0.5v-342c0-2.3-1.3-4.4-3.3-5.4L1264.6,343z"/>
	<path class="st14" d="M1285.7,478.4c-0.8,0-1.5-0.7-1.5-1.5v-31.8c0-0.8,0.7-1.5,1.5-1.5s1.5,0.7,1.5,1.5v31.8
		C1287.2,477.7,1286.5,478.4,1285.7,478.4z"/>
	<path class="st2" d="M1437.7,740c0,0,0-244.7,0-264.1c0-19.4-1.1-77.7-51.8-88c-40.6-8.2-43.4,36.8-43.4,36.8l-188.9-125.7
		l5.7-80.5l280.8,143.9l27.2,36.2l73.6,119.3v277.2l-34.8-18.9L1437.7,740z"/>
	<rect x="1326.1" y="364.1" class="st2" width="16.4" height="130.9"/>
	<polygon class="st2" points="726.1,605.1 726.1,651 809,691.5 861.5,675.5 789.6,610.4 	"/>
	<path class="st14" d="M1286,579.1c-0.8,0-1.5-0.7-1.5-1.5v-44c0-0.8,0.7-1.5,1.5-1.5s1.5,0.7,1.5,1.5v44
		C1287.5,578.4,1286.9,579.1,1286,579.1z"/>
	<g>
		<polygon points="1214.6,448.8 1214.6,448.8 1221.4,444.4 		"/>
		<path d="M1295.4,474.4l-34.9-1.5c-17.6-0.8-34.4-11.1-40.5-27.7l-33,3.3l-8,5l-10.2,12l-11.7,8.5l40.1,21.9l8.5-6l11.5,6
			l220.5,32.5V473L1295.4,474.4z"/>
	</g>
	<g>
		<polygon points="1527,383.6 1466.6,414.4 1466.6,403.8 1527,373 		"/>
		<g>
			<polygon points="1553.5,426 1493,456.7 1493,446.1 1553.5,415.4 			"/>
			<polygon class="st1" points="1553.5,415.4 1493,446.1 1484.2,442.6 1544.6,411.8 			"/>
			<polygon points="1562.3,440.1 1501.9,470.8 1501.9,460.2 1562.3,429.5 			"/>
			<polygon class="st1" points="1562.3,429.5 1501.9,460.2 1493,456.7 1553.5,426 			"/>
			<polygon points="1571.1,454.2 1510.7,484.9 1510.7,474.4 1571.1,443.6 			"/>
			<polygon class="st1" points="1571.1,443.6 1510.7,474.4 1501.9,470.8 1562.3,440.1 			"/>
			<polygon points="1579.9,468.3 1519.5,499.1 1519.5,488.5 1579.9,457.7 			"/>
			<polygon class="st1" points="1579.9,457.7 1519.5,488.5 1510.7,484.9 1571.1,454.2 			"/>
			<polygon points="1588.8,482.6 1528.3,513.4 1528.3,502.8 1588.8,472.1 			"/>
			<polygon class="st1" points="1588.8,472.1 1528.3,502.8 1519.5,499.3 1579.9,468.5 			"/>
			<polygon class="st1" points="1598.7,487.7 1540.7,517.9 1528.3,513.4 1588.8,482.6 			"/>
			<polygon points="1518.2,369.5 1457.7,400.2 1457.7,389.6 1518.2,358.9 			"/>
			<polygon class="st1" points="1527,373 1466.6,403.8 1457.7,400.2 1518.2,369.5 			"/>
			<polygon points="1535.8,397.7 1475.4,428.5 1475.4,417.9 1535.8,387.1 			"/>
			<polygon class="st1" points="1535.8,387.1 1475.4,417.9 1466.6,414.4 1527,383.6 			"/>
			<polygon points="1544.6,411.8 1484.2,442.6 1484.2,432 1544.6,401.2 			"/>
			<polygon class="st1" points="1544.6,401.2 1484.2,432 1475.4,428.5 1535.8,397.7 			"/>
		</g>
	</g>
	<g>
		<polygon points="1366.2,485.3 1365.9,555.8 1357.2,562 1357.5,491.5 		"/>
		<polygon class="st2" points="1237.3,495.3 1236.9,565.8 1225.5,560.3 1225.9,489.8 		"/>
		<g>
			<polygon class="st2" points="1297.4,493.4 1297.1,563.9 1285.7,558.4 1286,487.9 			"/>
			<polygon points="1286,487.9 1285.7,558.4 1277,564.5 1277.4,494 			"/>
			<polygon class="st2" points="1317.5,492.8 1317.1,563.3 1305.7,557.8 1306.1,487.3 			"/>
			<polygon points="1306.1,487.3 1305.7,557.8 1297.1,563.9 1297.4,493.4 			"/>
			<polygon class="st2" points="1337.5,492.1 1337.1,562.6 1325.8,557.1 1326.1,486.6 			"/>
			<polygon points="1326.1,486.6 1325.8,557.1 1317.1,563.3 1317.5,492.8 			"/>
			<polygon class="st2" points="1357.5,491.5 1357.2,562 1345.8,556.5 1346.2,486 			"/>
			<polygon points="1346.2,486 1345.8,556.5 1337.1,562.6 1337.5,492.1 			"/>
			<polygon class="st2" points="1377.6,490.8 1377.2,561.3 1365.9,555.8 1366.2,485.3 			"/>
			<polygon class="st2" points="1397.6,490.2 1397.3,560.7 1385.9,555.2 1386.3,484.7 			"/>
			<polygon points="1386.3,484.7 1385.9,555.2 1377.2,561.3 1377.6,490.8 			"/>
			<polygon class="st2" points="1417.7,489.6 1417.3,560 1406,554.6 1406.3,484.1 			"/>
			<polygon points="1406.3,484.1 1406,554.6 1397.3,560.7 1397.6,490.2 			"/>
			<polygon class="st2" points="1441,490.5 1438.7,560 1426,553.9 1426.4,483.4 			"/>
			<polygon points="1426.4,483.4 1426,553.9 1417.3,560 1417.7,489.6 			"/>
			<polygon class="st2" points="1217.2,496 1216.9,566.5 1205.5,561 1205.8,490.5 			"/>
			<polygon points="1225.9,489.8 1225.5,560.3 1216.9,566.5 1217.2,496 			"/>
			<polygon class="st2" points="1197.2,496 1196.9,566.5 1185.5,561 1185.8,490.5 			"/>
			<polygon points="1205.9,489.8 1205.5,560.3 1196.9,566.5 1197.2,496 			"/>
			<polygon class="st2" points="1257.3,494.7 1257,565.2 1245.6,559.7 1245.9,489.2 			"/>
			<polygon points="1245.9,489.2 1245.6,559.7 1236.9,565.8 1237.3,495.3 			"/>
			<polygon class="st2" points="1277.4,494 1277,564.5 1265.6,559 1266,488.6 			"/>
			<polygon points="1266,488.6 1265.6,559 1257,565.2 1257.3,494.7 			"/>
		</g>
	</g>
	<polygon points="891.8,610.6 864.5,596.9 1326.1,365.1 1325.8,422 1312.9,428.5 1297.4,406.3 	"/>
	<polygon points="984.6,656.7 984.6,683.2 933.8,708.1 907.9,695.1 	"/>
	<path d="M1446.4,721.9l59.8,31.4c0,0,0-77.7,0-105.9c0-28.2-15.2-52.9-32.9-52.9c-17.6,0-26.9,22.9-26.9,46.8
		S1446.4,721.9,1446.4,721.9z"/>
	<polygon class="st1" points="1445.9,721.9 1505.9,753.6 1497.1,758.9 1436.6,726.9 	"/>
	<path class="st1" d="M827,714.6l-60.9,32.6c0,0-5.3-6.7-10.9-17.7c-4.7-9.2-12.2-19.1-12.2-19.1l43.5-15.7L827,714.6z"/>
	<polygon class="st2" points="1266.6,163.4 1256.4,158.1 1256.4,131.2 1266.6,126.1 	"/>
	<polygon points="1266.6,126.1 1266.6,163.4 1277,158.6 1277,133.5 	"/>
	<g>
		<path class="st2" d="M1271.8,216l-26.6-15.6c0,0,0-43.2,0-65.3c0-4.9-0.5-17-6.1-25.5c-9.1-13.6-17.5-13.2-33.8-8
			c-38,12.1,66.6-36.6,66.6-36.6V216z"/>
		<path d="M1180.2,109.1l1,151.1l25.5-9.1c0-11.1-0.6-78.1-0.6-92.7c0-16,3.4-49.1,23.6-55.1c23.4-6.9,42.1,8.2,42.1,39.1
			c0,25.4,0,69.3,0,73.7l24.7-14V51.6L1180.2,109.1z"/>
		<polygon class="st2" points="1181.2,256.1 1153.6,263.1 1153.6,96 1180.2,109.1 		"/>
		<polygon class="st1" points="1153.6,96 1180.2,109.1 1296.5,51.6 1269.5,41.4 		"/>
	</g>
	<polygon points="1598.7,465.7 1598.7,615.8 1540.9,647.2 1540.7,495.9 	"/>
	<g>
		<path d="M1099.9,661.2l-1.4,109.8c-0.2,5.1,3.3,7.3,7.9,5l113.7-59.1c4.6-2.4,8.4-8.4,8.6-13.6l4.6-111.4L1099.9,661.2z"/>
		<path d="M1109.2,631.4c-4.6,2.4-8.4,8.4-8.6,13.6l-0.7,16.2l133.5-69.3l0.7-16.2c0.2-5.1-3.3-7.3-7.9-5L1109.2,631.4z"/>
		<g>
			<polygon class="st1" points="1170.9,651.6 1139.5,667.8 1139.7,662.7 1171.2,646.5 			"/>
			<polygon class="st1" points="1190.9,650 1148.8,671.8 1149,666.7 1191.2,644.9 			"/>
			<polygon class="st0" points="1214.1,638 1197.8,646.4 1198,641.3 1214.3,632.9 			"/>
			<polygon class="st1" points="1128.4,673.5 1124,675.8 1124.2,670.8 1128.7,668.5 			"/>
			<polygon class="st1" points="1128,682.5 1123.6,684.9 1123.8,679.8 1128.3,677.5 			"/>
			<polygon class="st1" points="1180.6,664.6 1138.7,686.2 1138.9,681.2 1180.9,659.5 			"/>
			<polygon class="st0" points="1168.7,679.6 1147.9,690.2 1148.2,685.1 1168.9,674.5 			"/>
			<polygon class="st1" points="1127.6,692 1123.2,694.3 1123.4,689.2 1127.9,686.9 			"/>
			<polygon class="st1" points="1127.2,701 1122.8,703.3 1123,698.2 1127.5,695.9 			"/>
		</g>
		<g>
			<polygon class="st1" points="1169.3,688.2 1137.9,704.5 1138.1,699.4 1169.5,683.2 			"/>
			<polygon class="st0" points="1189.3,686.7 1147.1,708.5 1147.4,703.4 1189.5,681.6 			"/>
			<polygon class="st1" points="1212.4,674.6 1196.2,683.1 1196.4,678 1212.7,669.5 			"/>
			<polygon class="st1" points="1126.8,710.2 1122.4,712.5 1122.6,707.4 1127,705.1 			"/>
			<polygon class="st1" points="1126.4,719.2 1122,721.5 1122.2,716.4 1126.7,714.1 			"/>
			<polygon class="st1" points="1179,701.2 1137,722.9 1137.3,717.8 1179.2,696.1 			"/>
			<polygon class="st0" points="1167,716.2 1146.3,726.9 1146.5,721.8 1167.3,711.2 			"/>
			<polygon class="st1" points="1126,728.7 1121.6,731 1121.8,725.9 1126.2,723.6 			"/>
			<polygon class="st1" points="1125.6,737.7 1121.2,740 1121.4,734.9 1125.8,732.6 			"/>
		</g>
	</g>
	<g>
		<g>
			<polygon points="813.6,409.2 828.8,394.2 833.9,471.7 818.6,486.8 			"/>
		</g>
		<g>
			<polygon class="st6" points="899,472.9 914.3,457.9 923.6,484.6 909.3,501.1 			"/>
		</g>
		<path class="st6" d="M912.5,457.8l-2.3-0.3c-0.2,0-0.5-0.1-0.7-0.1c0,0-0.1,0-0.1,0c-0.2-0.1-0.4-0.1-0.7-0.2c0,0-0.1,0-0.1,0
			c-0.2-0.1-0.5-0.2-0.7-0.3c0,0-0.1,0-0.1,0c-0.2-0.1-0.5-0.2-0.7-0.3c0,0-0.1,0-0.1,0c-0.2-0.1-0.5-0.2-0.7-0.4c0,0-0.1,0-0.1-0.1
			c-0.2-0.1-0.5-0.3-0.7-0.4c0,0-0.1,0-0.1-0.1c-0.2-0.2-0.5-0.3-0.7-0.5c0,0,0,0,0,0c-0.2-0.2-0.5-0.3-0.7-0.5
			c-0.1-0.1-0.2-0.2-0.3-0.2c-0.2-0.1-0.3-0.3-0.5-0.4c-0.1-0.1-0.2-0.1-0.2-0.2c-0.2-0.2-0.4-0.4-0.6-0.5c-0.1,0-0.1-0.1-0.2-0.1
			c-0.3-0.2-0.5-0.5-0.8-0.7c-0.1-0.1-0.1-0.1-0.2-0.2c-0.2-0.2-0.4-0.4-0.5-0.5c-0.2-0.2-0.4-0.4-0.6-0.6c-0.1-0.1-0.2-0.3-0.4-0.4
			c-0.1-0.1-0.3-0.3-0.4-0.4c-0.2-0.2-0.3-0.4-0.5-0.5c-0.1-0.1-0.3-0.3-0.4-0.5c-0.2-0.2-0.3-0.4-0.5-0.6c-0.1-0.2-0.3-0.4-0.4-0.5
			c-0.2-0.3-0.4-0.5-0.6-0.8l-3.4-4.5l-96.1-136.2c-0.2-0.2-0.3-0.4-0.5-0.6c-0.4-0.5-0.7-1-1.1-1.5c-0.1-0.1-0.2-0.2-0.2-0.3
			c-0.1-0.1-0.2-0.2-0.3-0.3c-0.2-0.2-0.4-0.5-0.6-0.7c-0.4-0.5-0.8-0.9-1.1-1.4c0,0,0,0-0.1-0.1c0-0.1-0.1-0.1-0.1-0.1
			c-0.3-0.4-0.7-0.8-1.1-1.2c-0.2-0.2-0.4-0.4-0.6-0.6c-0.2-0.2-0.4-0.4-0.6-0.6c-0.1-0.1-0.3-0.3-0.4-0.4c-0.5-0.5-0.9-0.9-1.4-1.4
			c-0.1-0.1-0.2-0.2-0.3-0.2c-0.6-0.6-1.2-1.1-1.8-1.7c-0.1-0.1-0.2-0.1-0.2-0.2c-0.5-0.4-1-0.8-1.4-1.2c-0.1-0.1-0.3-0.2-0.4-0.3
			c-0.2-0.2-0.4-0.3-0.6-0.5c-0.2-0.2-0.4-0.3-0.6-0.5c-0.4-0.3-0.8-0.6-1.3-0.9c0,0,0,0-0.1-0.1c0,0,0,0,0,0
			c-0.4-0.3-0.9-0.6-1.3-0.9c-0.3-0.2-0.5-0.3-0.8-0.5c-0.1-0.1-0.2-0.1-0.3-0.2c-0.1-0.1-0.2-0.1-0.2-0.2c-0.5-0.3-0.9-0.6-1.4-0.8
			c-0.1-0.1-0.3-0.2-0.4-0.2c-0.1-0.1-0.3-0.2-0.4-0.2c-0.2-0.1-0.4-0.2-0.6-0.3c-0.5-0.3-1-0.5-1.5-0.8c0,0-0.1,0-0.1,0
			c-0.1,0-0.1-0.1-0.2-0.1c-0.4-0.2-0.9-0.4-1.3-0.6c-0.3-0.1-0.5-0.2-0.8-0.3c-0.2-0.1-0.3-0.1-0.5-0.2c-0.1,0-0.2-0.1-0.3-0.1
			c-0.5-0.2-1.1-0.4-1.6-0.6c-0.1,0-0.2-0.1-0.3-0.1c-0.1-0.1-0.3-0.1-0.4-0.2c-0.3-0.1-0.6-0.2-1-0.3c-0.4-0.1-0.7-0.2-1.1-0.3
			c-0.1,0-0.3-0.1-0.4-0.1c-0.1,0-0.1,0-0.2-0.1c-0.6-0.2-1.2-0.3-1.8-0.5c-0.1,0-0.2-0.1-0.3-0.1c-0.2,0-0.4-0.1-0.6-0.1
			c-0.3-0.1-0.6-0.2-0.9-0.2c-0.3-0.1-0.7-0.1-1-0.2c-0.2,0-0.4-0.1-0.6-0.1c-0.1,0-0.2,0-0.3-0.1c-0.7-0.1-1.4-0.2-2.1-0.3
			c0,0-0.1,0-0.1,0c-0.5-0.1-1-0.1-1.4-0.2c-0.2,0-0.3,0-0.5-0.1c-0.3,0-0.6-0.1-1-0.1c-0.1,0-0.2,0-0.2,0c-0.1,0-0.2,0-0.3,0
			c-0.3,0-0.6-0.1-0.9-0.1c-0.2,0-0.3,0-0.5,0c-0.3,0-0.7,0-1-0.1c-0.1,0-0.2,0-0.3,0c0,0,0,0-0.1,0c-0.4,0-0.8,0-1.2-0.1
			c-0.1,0-0.2,0-0.2,0c-0.3,0-0.7,0-1,0c0,0-0.1,0-0.1,0c-0.1,0-0.2,0-0.3,0c-0.2,0-0.5,0-0.7,0c-0.2,0-0.3,0-0.5,0
			c-0.2,0-0.4,0-0.7,0c-0.1,0-0.1,0-0.2,0c-0.1,0-0.2,0-0.3,0c-0.2,0-0.4,0-0.6,0c-0.2,0-0.3,0-0.5,0c-0.2,0-0.4,0-0.6,0
			c-0.1,0-0.2,0-0.3,0c-0.1,0-0.1,0-0.2,0c-0.2,0-0.4,0-0.6,0.1c-0.1,0-0.3,0-0.4,0.1c-0.2,0-0.4,0.1-0.6,0.1c-0.1,0-0.2,0-0.3,0
			c0,0-0.1,0-0.1,0c-0.2,0-0.4,0.1-0.6,0.1c-0.1,0-0.3,0-0.4,0.1c-0.2,0-0.4,0.1-0.6,0.1c-0.1,0-0.2,0-0.3,0.1c0,0-0.1,0-0.1,0
			l-15.2,15c0.1,0,0.2,0,0.4-0.1c0.2,0,0.4-0.1,0.6-0.1c0.1,0,0.3,0,0.4-0.1c0.2,0,0.4-0.1,0.6-0.1c0.1,0,0.3,0,0.4-0.1
			c0.2,0,0.4-0.1,0.6-0.1c0.1,0,0.3,0,0.4-0.1c0.2,0,0.4,0,0.6-0.1c0.1,0,0.3,0,0.5,0c0.2,0,0.4,0,0.6,0c0.2,0,0.3,0,0.5,0
			c0.2,0,0.4,0,0.6,0c0.2,0,0.3,0,0.5,0c0.2,0,0.4,0,0.7,0c0.2,0,0.3,0,0.5,0c0.2,0,0.5,0,0.7,0c0.1,0,0.3,0,0.4,0c0.3,0,0.6,0,1,0
			c0.1,0,0.2,0,0.2,0c0.4,0,0.8,0,1.2,0.1c0.1,0,0.2,0,0.3,0c0.3,0,0.7,0,1,0.1c0.2,0,0.3,0,0.5,0c0.3,0,0.6,0.1,0.9,0.1
			c0.2,0,0.3,0,0.5,0c0.3,0,0.6,0.1,1,0.1c0.1,0,0.3,0,0.4,0.1c0.5,0.1,1,0.1,1.4,0.2c0.9,0.1,1.7,0.3,2.6,0.4
			c0.2,0,0.4,0.1,0.6,0.1c0.7,0.1,1.3,0.3,1.9,0.4c0.2,0,0.4,0.1,0.6,0.1c0.8,0.2,1.6,0.4,2.3,0.6c0.1,0,0.3,0.1,0.4,0.1
			c0.7,0.2,1.4,0.4,2,0.7c0.1,0.1,0.3,0.1,0.4,0.2c0.7,0.3,1.5,0.6,2.2,0.9c0.2,0.1,0.3,0.1,0.5,0.2c0.7,0.3,1.4,0.6,2.1,1
			c0.1,0,0.1,0.1,0.2,0.1c0.7,0.4,1.5,0.8,2.2,1.2c0.1,0.1,0.3,0.2,0.4,0.2c0.7,0.4,1.4,0.8,2.1,1.2c0.1,0.1,0.2,0.1,0.3,0.2
			c0.7,0.5,1.4,0.9,2.1,1.4c0,0,0,0,0.1,0.1c0.6,0.5,1.3,0.9,1.9,1.4c0.2,0.2,0.4,0.3,0.6,0.5c0.6,0.5,1.3,1,1.9,1.6
			c0.1,0.1,0.2,0.1,0.2,0.2c0.6,0.5,1.2,1.1,1.8,1.7c0.1,0.1,0.2,0.2,0.3,0.2c0.6,0.6,1.2,1.2,1.8,1.8c0.2,0.2,0.4,0.4,0.6,0.6
			c0.6,0.6,1.1,1.2,1.6,1.8c0,0.1,0.1,0.1,0.1,0.2c0.6,0.7,1.2,1.4,1.8,2.2c0.1,0.1,0.2,0.2,0.3,0.3c0.6,0.8,1.2,1.6,1.8,2.4
			l96.1,136.2l3.4,4.5c0.1,0.1,0.2,0.3,0.3,0.4c0.1,0.1,0.2,0.2,0.3,0.4c0.1,0.2,0.3,0.4,0.4,0.5c0.1,0.1,0.1,0.1,0.2,0.2
			c0.1,0.1,0.2,0.2,0.3,0.4c0.1,0.2,0.3,0.3,0.4,0.5c0,0.1,0.1,0.1,0.1,0.2c0.1,0.1,0.2,0.2,0.3,0.4c0.1,0.1,0.3,0.3,0.4,0.4
			c0,0,0.1,0.1,0.1,0.1c0.1,0.1,0.2,0.2,0.3,0.3c0.2,0.2,0.4,0.4,0.6,0.6c0,0.1,0.1,0.1,0.1,0.2c0.1,0.1,0.3,0.3,0.4,0.4
			c0.1,0.1,0.1,0.1,0.2,0.2c0.3,0.3,0.5,0.5,0.8,0.7c0.1,0,0.1,0.1,0.2,0.1c0.2,0.2,0.4,0.4,0.6,0.5c0.1,0.1,0.2,0.1,0.2,0.2
			c0.1,0.1,0.2,0.1,0.2,0.2c0.1,0.1,0.2,0.1,0.3,0.2c0.1,0.1,0.2,0.2,0.3,0.2c0,0,0.1,0.1,0.1,0.1c0.2,0.1,0.4,0.3,0.5,0.4
			c0,0,0,0,0,0c0,0,0,0,0,0c0.2,0.1,0.3,0.2,0.5,0.3c0.1,0.1,0.2,0.1,0.3,0.2c0,0,0.1,0,0.1,0.1c0,0,0.1,0,0.1,0.1
			c0.1,0.1,0.3,0.2,0.4,0.3c0.1,0,0.1,0.1,0.2,0.1c0,0,0.1,0,0.1,0.1c0.1,0,0.1,0.1,0.2,0.1c0.1,0.1,0.3,0.2,0.4,0.2
			c0,0,0.1,0,0.1,0c0,0,0.1,0,0.1,0c0.1,0,0.1,0.1,0.2,0.1c0.1,0.1,0.3,0.1,0.4,0.2c0,0,0,0,0.1,0c0,0,0.1,0,0.1,0
			c0.1,0,0.2,0.1,0.2,0.1c0.1,0,0.2,0.1,0.4,0.1c0,0,0.1,0,0.1,0c0,0,0.1,0,0.1,0c0.1,0,0.1,0,0.2,0.1c0.1,0,0.2,0.1,0.4,0.1
			c0,0,0.1,0,0.1,0c0,0,0.1,0,0.1,0c0.1,0,0.1,0,0.2,0c0.1,0,0.2,0,0.3,0.1c0.1,0,0.1,0,0.2,0l2.3,0.3l1.8,0.1l15.2-15L912.5,457.8z
			"/>
		<g>
			<path class="st15" d="M744.6,297.3c15,2.1,27.6,10.1,37.8,24.2l96.1,136.2l3.4,4.5c4.8,6.2,9.1,9.7,13.1,10.3l2.3,0.3l1.8,0.1
				l9.7,28.6c-2.9-0.2-6.1-0.5-11.3-1.5c-8.3-1.7-16.2-4.4-23-9.2c-6.8-4.8-13.6-12-20.2-21.6l-40.7-60l5,77.5l-35.5-4.9l-4.5-123.1
				l-15.7-21.4c-3-4.3-6-7.4-9-9.4c-3-2-6.2-3.2-9.8-3.7l-6.5-0.6l-10.4-26.3C731.9,296.4,737.7,296.3,744.6,297.3z"/>
		</g>
	</g>
	<g id="XMLID_238_">
		<polygon id="XMLID_561_" class="st10" points="841.4,231.3 862.3,270.2 906.5,271.5 885.5,232.6 		"/>
		<polygon id="XMLID_560_" class="st11" points="841.4,231.3 864.5,193.8 908.7,195 885.5,232.6 		"/>
		<polygon id="XMLID_239_" class="st12" points="906.5,271.5 929.7,233.9 908.7,195 885.5,232.6 		"/>
	</g>
	<g id="XMLID_562_">
		<polygon id="XMLID_565_" class="st10" points="679.8,178.3 692.9,202.7 720.6,203.5 707.5,179.1 		"/>
		<polygon id="XMLID_564_" class="st11" points="679.8,178.3 694.3,154.8 722,155.6 707.5,179.1 		"/>
		<polygon id="XMLID_563_" class="st12" points="720.6,203.5 735.1,179.9 722,155.6 707.5,179.1 		"/>
	</g>
	<polygon points="1252.3,263.5 1235.1,256.8 1112.3,402 1125.2,413.3 1252.3,347.7 	"/>
	<g>
		<g>
			<polygon class="st1" points="1236.4,271.3 1192.5,246.9 1209.1,240.8 1255.6,263.9 			"/>
			<g>
				<polygon class="st1" points="1202.6,311.1 1158.7,286.7 1170.4,282.1 1214.4,306.6 				"/>
				<polygon class="st2" points="1214.4,306.6 1170.4,282.1 1169.9,273.4 1213.9,297.8 				"/>
				<polygon class="st1" points="1191.3,324.4 1147.4,299.9 1159.2,295.4 1203.1,319.8 				"/>
				<polygon class="st2" points="1203.1,319.8 1159.2,295.4 1158.7,286.7 1202.6,311.1 				"/>
				<polygon class="st1" points="1180.8,338.5 1137.1,314.1 1147.9,308.7 1191.8,333.1 				"/>
				<polygon class="st2" points="1191.8,333.1 1147.9,308.7 1147.4,299.9 1191.3,324.4 				"/>
				<polygon class="st1" points="1225.2,284.6 1181.2,260.2 1193,255.6 1236.9,280 				"/>
				<polygon class="st2" points="1236.9,280 1193,255.6 1192.5,246.9 1236.4,271.3 				"/>
				<polygon class="st1" points="1213.9,297.8 1169.9,273.4 1181.7,268.9 1225.7,293.3 				"/>
				<polygon class="st2" points="1225.7,293.3 1181.7,268.9 1181.2,260.2 1225.2,284.6 				"/>
			</g>
		</g>
		<g>
			<polygon class="st1" points="1170.1,350.9 1126.2,326.4 1137.9,321.9 1181.9,346.3 			"/>
			<g>
				<polygon class="st1" points="1136.3,390.9 1092.3,366.2 1104.1,361.7 1148,385.7 				"/>
				<polygon class="st2" points="1148,385.7 1104.1,361.7 1103.6,353 1147.5,377.4 				"/>
				<polygon class="st1" points="1125,403.9 1081.1,379.5 1092.8,374.9 1136.8,398.2 				"/>
				<polygon class="st2" points="1136.8,398.5 1092.8,374.9 1092.3,366.2 1136.3,390.9 				"/>
				<polygon class="st2" points="1125.5,412.6 1081.6,388.2 1081.1,379.5 1125,403.9 				"/>
				<polygon class="st2" points="1181.9,346.3 1137.9,321.9 1137.2,314.2 1180.9,338.6 				"/>
				<polygon class="st1" points="1158.8,364.1 1114.9,339.7 1126.6,335.1 1170.6,359.6 				"/>
				<polygon class="st2" points="1170.6,359.6 1126.6,335.1 1126.2,326.4 1170.1,350.9 				"/>
				<polygon class="st1" points="1147.5,377.4 1103.6,353 1114.9,348.2 1159.3,372.8 				"/>
				<polygon class="st2" points="1159.3,372.8 1114.9,348.2 1114.9,339.7 1158.8,364.1 				"/>
				<polygon class="st1" points="1113.7,417.2 1069.8,392.8 1081.6,388.3 1125.5,412.7 				"/>
				<polygon class="st1" points="1102.5,430.5 1058.5,406.1 1070.3,401.5 1114.2,425.9 				"/>
				<polygon class="st2" points="1114.2,425.9 1070.3,401.5 1069.8,392.8 1113.7,417.2 				"/>
				<polygon class="st2" points="1103,442.3 1058.5,417.9 1058.5,406.1 1102.5,430.5 				"/>
			</g>
		</g>
	</g>
	<polygon class="st1" points="1264.4,333.3 726.1,605.1 842.6,665.1 786.1,695.1 1146.1,875.1 1206.1,845.1 907.9,695.1 
		984.6,656.7 864.6,596.7 1326.1,365.1 	"/>
	<path class="st13" d="M1267,398.1c0,3.2,0.2,28.7,0.3,33.9l49.8,14.1l0-72.7c0-2.3-1.3-4.4-3.3-5.4l-49.2-24.4l-28.1,33.7L1264,393
		C1265.8,394.1,1267,396,1267,398.1z"/>
	<polygon class="st13" points="750.8,605.1 865.5,665.1 809,695.1 1144.4,861 1181.4,843.3 888.5,693.3 957.6,658.9 839.3,598.9 
		1300.1,364.6 1264.6,343.6 	"/>
	<g>
		<path class="st14" d="M1064.1,813.2c-0.3,0-0.6-0.1-0.8-0.2l-70.6-37c-0.9-0.5-1.2-1.5-0.7-2.4c0.5-0.9,1.5-1.2,2.4-0.7l70.6,37
			c0.9,0.5,1.2,1.5,0.7,2.4C1065.3,812.9,1064.7,813.2,1064.1,813.2z"/>
	</g>
	<g>
		<path class="st14" d="M860.2,649.2c-0.3,0-0.5-0.1-0.8-0.2l-82.9-42.4c-0.6-0.3-1-0.9-1-1.6c0-0.7,0.4-1.3,1-1.6l51.2-26.5
			c0.9-0.5,1.9-0.1,2.4,0.8c0.4,0.9,0.1,1.9-0.8,2.4l-48.1,24.9l79.9,40.8c0.9,0.4,1.2,1.5,0.8,2.4
			C861.5,648.8,860.9,649.2,860.2,649.2z"/>
	</g>
	<g>
		<path class="st14" d="M918.5,723.3c-0.3,0-0.5-0.1-0.8-0.2l-54.7-28.2c-0.6-0.3-1-0.9-1-1.6c0-0.7,0.4-1.3,1-1.6l52.9-26.5
			c0.9-0.4,1.9-0.1,2.4,0.8c0.4,0.9,0.1,1.9-0.8,2.4l-49.8,24.9l51.6,26.6c0.9,0.4,1.2,1.5,0.8,2.4
			C919.7,723,919.1,723.3,918.5,723.3z"/>
	</g>
	<g>
		<path class="st14" d="M1107,818.9c-0.3,0-0.5-0.1-0.8-0.2l-54-27.4c-0.9-0.4-1.2-1.5-0.8-2.4c0.4-0.9,1.5-1.2,2.4-0.8l54,27.4
			c0.9,0.4,1.2,1.5,0.8,2.4C1108.3,818.5,1107.7,818.9,1107,818.9z"/>
	</g>
	<path class="st13" d="M1157.3,762.5V820l-53,21.2l43.5,21.7l46.8-23.6l1.1-58.5c0-1.8,1.1-3.5,2.7-4.4l152.5-77.9l75.2-71
		l-265.6,129.5C1158.6,758.1,1157.3,760.2,1157.3,762.5z"/>
	<g>
		<path class="st14" d="M1147.8,856.2l-17-8.2c-0.9-0.4-1.2-1.5-0.8-2.4c0.4-0.9,1.5-1.2,2.4-0.8l15.5,7.5l23.8-10.8
			c0.9-0.4,1.9,0,2.3,0.9c0.4,0.9,0,1.9-0.9,2.3L1147.8,856.2z"/>
	</g>
	<path class="st16" d="M1224,476.9c0,0.2,0,0.3,0,0.5"/>
	<g>
		<g class="st17">
			<g class="st17">
				<defs>
					<path id="SVGID_1_" class="st17" d="M1002.7,283.8l-5.2,2.9c-1.5,0.9-2.9,2.2-3.9,3.9l5.2-2.9
						C999.9,286,1001.2,284.7,1002.7,283.8z"/>
				</defs>
				<use xlink:href="#SVGID_1_"  style="overflow:visible;fill:#EFA702;"/>
				<clipPath id="SVGID_2_">
					<use xlink:href="#SVGID_1_"  style="overflow:visible;"/>
				</clipPath>
				<g class="st18">
					<path class="st19" d="M993.7,290.7l5.2-2.9c1-1.7,2.3-3,3.9-3.9l-5.2,2.9C996,287.6,994.6,288.9,993.7,290.7L993.7,290.7z"/>
				</g>
			</g>
			<g class="st17">
				<defs>
					<path id="SVGID_3_" class="st17" d="M1011.8,312.2c1.7-1,3.5-2,5.2-2.9c-3.8,2.1-9,1.6-13.3-1.8c-3-2.4-5.1-5.9-6-9.4
						c-0.9-3.6-0.6-7.3,1.1-10.3l-5.2,2.9c-1.7,3-2,6.7-1.1,10.3c0.9,3.6,3,7,6,9.4C1002.9,313.8,1008,314.4,1011.8,312.2z"/>
				</defs>
				<use xlink:href="#SVGID_3_"  style="overflow:visible;fill:#EFA702;"/>
				<clipPath id="SVGID_4_">
					<use xlink:href="#SVGID_3_"  style="overflow:visible;"/>
				</clipPath>
				<g class="st20">
					<path class="st19" d="M1011.8,312.2l5.2-2.9c-3.8,2.1-9,1.6-13.3-1.8c-3-2.4-5.1-5.9-6-9.4c-0.9-3.6-0.6-7.3,1.1-10.3l-5.2,2.9
						c-1.7,3-2,6.7-1.1,10.3c0.9,3.6,3,7,6,9.4C1002.9,313.8,1008,314.4,1011.8,312.2L1011.8,312.2z"/>
				</g>
			</g>
			<g class="st17">
				<path class="st19" d="M1011,273.9l5.2-2.9c-7.2-3.4-14.8-3.3-20.7,0l-5.2,2.9C996.2,270.6,1003.8,270.5,1011,273.9L1011,273.9z"
					/>
			</g>
			<path class="st19" d="M995.5,271c-1.7,1-3.5,2-5.2,2.9c6-3.4,13.6-3.5,20.7,0l5.2-2.9C1009.1,267.6,1001.5,267.6,995.5,271z"/>
			<g class="st17">
				<defs>
					<path id="SVGID_5_" class="st17" d="M1019.1,325c1.7-1,3.5-2,5.2-2.9c3.1-1.7,5.8-4.4,7.7-7.9c3.4-6,4-13.4,2.2-20.6
						c-1.2-4.9-3.6-9.7-6.9-13.8l-5.2,2.9c3.3,4.1,5.7,8.9,6.9,13.8c1.8,7.1,1.2,14.6-2.2,20.6
						C1024.9,320.7,1022.2,323.3,1019.1,325z"/>
				</defs>
				<use xlink:href="#SVGID_5_"  style="overflow:visible;fill:#EFA702;"/>
				<clipPath id="SVGID_6_">
					<use xlink:href="#SVGID_5_"  style="overflow:visible;"/>
				</clipPath>
				<g class="st21">
					<path class="st19" d="M1019.1,325l5.2-2.9c3.1-1.7,5.8-4.4,7.7-7.9c3.4-6,4-13.4,2.2-20.6c-1.2-4.9-3.6-9.7-6.9-13.8l-5.2,2.9
						c3.3,4.1,5.7,8.9,6.9,13.8c1.8,7.1,1.2,14.6-2.2,20.6C1024.9,320.7,1022.2,323.3,1019.1,325L1019.1,325z"/>
				</g>
			</g>
			<g>
				<polygon class="st19" points="1022.1,282.8 1027.3,279.9 1057.5,226.2 1052.3,229.1 				"/>
			</g>
			<g>
				<polygon class="st19" points="1069.5,226.9 1074.7,224 1063.7,215.2 1058.5,218.1 				"/>
			</g>
			<g>
				<polygon class="st19" points="1063.3,237.9 1068.5,235 1074.7,224 1069.5,226.9 				"/>
			</g>
			<g>
				<polygon class="st19" points="1058.5,218.1 1063.7,215.2 1067.6,208.3 1062.4,211.2 				"/>
			</g>
			<g>
				<polygon class="st19" points="1080.8,226 1086,223 1092.2,212 1087,215 				"/>
			</g>
			<g>
				<polygon class="st19" points="1087,215 1092.2,212 1073.8,197.3 1068.5,200.2 				"/>
			</g>
			<g>
				<polygon class="st19" points="1076.3,186.4 1081.5,183.5 1070.4,174.6 1065.2,177.6 				"/>
			</g>
			<g>
				<path class="st0" d="M1076.3,186.4l-7.7,13.8L1087,215l-6.2,11l-18.5-14.8l-3.9,6.9l11,8.8l-6.2,11l-11-8.8l-30.2,53.7
					c3.3,4.1,5.7,8.9,6.9,13.8c1.8,7.1,1.2,14.6-2.2,20.6c-6.8,12.1-22.2,13.9-34.4,4.2c-6.1-4.9-10.3-11.8-12-18.9
					c-1.8-7.2-1.2-14.6,2.2-20.6c5.7-10.2,17.6-13,28.5-7.9l54.2-96.3L1076.3,186.4z M993.7,290.7c-1.7,3-2,6.7-1.1,10.3
					c0.9,3.6,3,7,6,9.4c6.1,4.9,13.8,3.9,17.1-2.1c1.7-3,2-6.7,1.1-10.3c-0.9-3.6-3-7-6-9.4C1004.7,283.7,997,284.7,993.7,290.7
					L993.7,290.7z"/>
			</g>
			<g>
				<polygon class="st19" points="1068.5,200.2 1073.8,197.3 1081.5,183.5 1076.3,186.4 				"/>
			</g>
		</g>
	</g>
	<g>
		<path class="st8" d="M989.4,363.6l0.1,0.9l0.1,1.1c0,0.1,0,0.2,0,0.3c0,0,0,0,0,0.1c0,0.1,0,0.2,0,0.3c0,0.1,0,0.1,0,0.2
			c0,0,0,0.1,0,0.1c0,0,0,0.1,0,0.1c0,0,0,0.1,0,0.1c0,0,0,0.1,0,0.1c0,0.1,0,0.1-0.1,0.2c0,0,0,0.1,0,0.1c0,0-0.1,0.1-0.1,0.1
			c0,0,0,0.1-0.1,0.1c0,0-0.1,0.1-0.1,0.1c0,0-0.1,0.1-0.1,0.1c0,0-0.1,0.1-0.1,0.1l7.9-7.1c0,0,0,0,0.1-0.1c0,0,0,0,0.1-0.1
			c0,0,0.1-0.1,0.1-0.1c0,0,0,0,0,0c0,0,0-0.1,0.1-0.1c0,0,0-0.1,0.1-0.1c0,0,0,0,0,0c0,0,0-0.1,0.1-0.1c0,0,0-0.1,0-0.1
			c0,0,0,0,0,0c0,0,0-0.1,0.1-0.1c0,0,0-0.1,0-0.1c0,0,0,0,0,0c0,0,0-0.1,0-0.1c0,0,0-0.1,0-0.1c0,0,0,0,0,0c0,0,0,0,0-0.1
			c0-0.1,0-0.1,0-0.2c0,0,0,0,0,0c0-0.1,0-0.2,0-0.2c0,0,0,0,0-0.1c0,0,0-0.1,0-0.1c0,0,0-0.1,0-0.1l-0.1-1.1l-0.1-0.9L989.4,363.6z
			"/>
		<path d="M1000.3,379.8l-26.9-2.5l-7.9,7.1l26.9,2.5c3.1,0.3,5.5,0,7.2-0.8c0.6-0.3,1.1-0.6,1.5-1l7.9-7.1
			C1007.3,379.6,1004.4,380.2,1000.3,379.8z"/>
		<path class="st8" d="M941.5,375.3c-1.7-0.1-3,0.2-3.7,0.8l-7.9,7.1c0.7-0.7,2-0.9,3.7-0.8l9.4,0.2l64,49l7.9-7.1l-64-49
			L941.5,375.3z"/>
		<path class="st8" d="M923.9,376.2c0-0.1-0.1-0.3-0.1-0.4c-0.1-0.2-0.1-0.5-0.2-0.7c0-0.2-0.1-0.3-0.1-0.5c0-0.2-0.1-0.4-0.1-0.6
			c-0.1-0.2-0.1-0.5-0.2-0.7c0-0.2-0.1-0.4-0.1-0.5c0-0.3-0.1-0.5-0.1-0.8c0-0.2-0.1-0.3-0.1-0.5c0-0.3-0.1-0.6-0.1-0.9
			c0-0.1,0-0.3-0.1-0.4c0-0.4-0.1-0.9-0.1-1.3c0-0.3,0-0.5,0-0.7c0-0.1,0-0.2,0-0.2c0-0.2,0-0.3,0-0.5c0-0.1,0-0.2,0-0.2
			c0-0.2,0-0.3,0-0.4c0-0.1,0-0.2,0-0.2c0-0.2,0-0.3,0-0.5c0-0.1,0-0.1,0-0.2c0-0.2,0-0.4,0.1-0.6c0-0.2,0.1-0.5,0.1-0.7
			c0-0.1,0-0.1,0-0.2c0-0.2,0.1-0.3,0.1-0.5c0-0.1,0-0.2,0.1-0.3c0-0.1,0-0.2,0.1-0.3c0-0.1,0.1-0.2,0.1-0.3c0-0.1,0.1-0.2,0.1-0.3
			c0-0.1,0.1-0.2,0.1-0.3c0,0,0-0.1,0.1-0.1c0.1-0.2,0.1-0.3,0.2-0.5c0,0,0,0,0,0c0.1-0.1,0.1-0.3,0.2-0.4c0,0,0-0.1,0.1-0.1
			c0.1-0.1,0.1-0.2,0.2-0.3c0,0,0.1-0.1,0.1-0.1c0.1-0.1,0.2-0.2,0.2-0.3c0,0,0,0,0,0c0.1-0.1,0.2-0.2,0.3-0.3c0,0,0.1-0.1,0.1-0.1
			c0.1-0.1,0.2-0.2,0.3-0.3l-7.9,7.1c-0.1,0.1-0.1,0.1-0.2,0.2c0,0-0.1,0.1-0.1,0.1c0,0-0.1,0.1-0.1,0.1c-0.1,0.1-0.2,0.2-0.3,0.3
			c0,0,0,0,0,0c0,0,0,0,0,0c-0.1,0.1-0.2,0.2-0.2,0.3c0,0-0.1,0.1-0.1,0.1c0,0-0.1,0.1-0.1,0.1c0,0.1-0.1,0.1-0.1,0.2
			c0,0-0.1,0.1-0.1,0.1c-0.1,0.1-0.1,0.3-0.2,0.4c0,0,0,0,0,0c0,0,0,0,0,0c-0.1,0.1-0.1,0.3-0.2,0.5c0,0,0,0.1-0.1,0.1
			c0,0.1-0.1,0.2-0.1,0.3c0,0,0,0,0,0.1c0,0.1-0.1,0.2-0.1,0.3c0,0.1-0.1,0.2-0.1,0.3c0,0.1,0,0.2-0.1,0.3c0,0.1,0,0.1-0.1,0.2
			c0,0,0,0.1,0,0.1c0,0.2-0.1,0.3-0.1,0.5c0,0.1,0,0.1,0,0.2c0,0.2-0.1,0.5-0.1,0.7c0,0,0,0,0,0c0,0.2,0,0.4,0,0.6
			c0,0.1,0,0.1,0,0.2c0,0.2,0,0.3,0,0.5c0,0.1,0,0.2,0,0.2c0,0.1,0,0.3,0,0.5c0,0.1,0,0.2,0,0.2c0,0,0,0.1,0,0.1c0,0.1,0,0.2,0,0.3
			c0,0.1,0,0.2,0,0.2c0,0.2,0,0.5,0,0.7c0,0.4,0.1,0.9,0.1,1.3c0,0.1,0,0.3,0.1,0.4c0,0.3,0.1,0.6,0.1,0.9c0,0.2,0.1,0.3,0.1,0.5
			c0,0.3,0.1,0.5,0.1,0.8c0,0.2,0.1,0.4,0.1,0.5c0,0.2,0.1,0.5,0.2,0.7c0,0.1,0,0.1,0,0.2c0,0.1,0.1,0.3,0.1,0.4
			c0,0.2,0.1,0.3,0.1,0.5c0.1,0.2,0.1,0.5,0.2,0.7c0,0.1,0.1,0.3,0.1,0.4c0.1,0.2,0.1,0.5,0.2,0.7c0,0.1,0.1,0.2,0.1,0.4
			c0.1,0.4,0.2,0.7,0.4,1.1l7.9-7.1c-0.1-0.4-0.2-0.7-0.4-1.1c0-0.1-0.1-0.2-0.1-0.4C924.1,376.7,924,376.5,923.9,376.2z"/>
		<g>
			<polygon points="937.2,383.6 929.4,390.7 916.8,385.5 924.6,378.4 			"/>
		</g>
		<g>
			<path class="st15" d="M922.6,368.8c-0.6-7.5,2.2-11.1,8.4-10.8l60.5,3.7l2,0c2.7,0,4-1,3.9-3l-0.1-1.1l-0.1-0.9l13.4,5.8
				c0.4,1.7,0.7,3.8,0.9,6.4c0.3,4.2-0.4,7.2-2.1,9c-1.7,1.8-4.8,2.5-9.1,2.1l-26.9-2.5l40,29.7l1.4,17.6l-64-49l-9.4-0.2
				c-1.9-0.1-3.2,0.2-3.9,1.1c-0.7,0.8-1,2.1-0.8,3.9l0.4,3.4l-12.6-5.2C923.6,375.4,922.9,372.2,922.6,368.8z"/>
		</g>
	</g>
	<path class="st14" d="M1285.7,724.2c-3,0-5.9-0.8-8.5-1.5c-0.8-0.2-1.3-1-1.1-1.8c0.2-0.8,1-1.3,1.8-1.1c3.1,0.8,6.6,1.8,9.8,1.2
		c2.7-0.5,5.7-2.6,5.9-5.5c0-0.4,0.2-0.8,0.6-1.1s0.8-0.4,1.2-0.3c7.2,1.3,14.9,0.5,21.7-2.3c4.2-1.7,6.8-4,7.8-6.6
		c0.9-2.3,1-4.8-3.8-7.2c-0.7-0.4-1.1-1.3-0.7-2c0.4-0.7,1.3-1.1,2-0.7c5.3,2.6,7.1,6.2,5.3,10.9c-1.3,3.5-4.5,6.3-9.5,8.3
		c-6.9,2.9-14.6,3.8-21.9,2.7c-1.1,3.6-4.7,6-8.1,6.6C1287.4,724.2,1286.6,724.2,1285.7,724.2z"/>
	<path class="st14" d="M1282,732.1c-3.7,0-7.3-1.1-10.4-3.1c-0.7-0.5-0.9-1.4-0.4-2.1c0.5-0.7,1.4-0.9,2.1-0.4
		c3.5,2.3,7.9,3.1,12,2.3c0.8-0.2,1.6,0.4,1.8,1.2c0.2,0.8-0.4,1.6-1.2,1.8C1284.5,732,1283.2,732.1,1282,732.1z"/>
	<path class="st14" d="M1302.9,638.1c-0.8,0-1.5-0.7-1.5-1.5v-68.5c0-0.8,0.7-1.5,1.5-1.5s1.5,0.7,1.5,1.5v68.5
		C1304.4,637.4,1303.7,638.1,1302.9,638.1z"/>
	<path class="st14" d="M1302.9,671.3c-0.8,0-1.5-0.7-1.5-1.5v-22.1c0-0.8,0.7-1.5,1.5-1.5s1.5,0.7,1.5,1.5v22.1
		C1304.4,670.6,1303.7,671.3,1302.9,671.3z"/>
	<path class="st14" d="M1286,658.4c-0.8,0-1.5-0.7-1.5-1.5v-64.6c0-0.8,0.7-1.5,1.5-1.5s1.5,0.7,1.5,1.5v64.6
		C1287.5,657.7,1286.9,658.4,1286,658.4z"/>
	<path class="st14" d="M1286,692.7c-0.8,0-1.5-0.7-1.5-1.5v-23.4c0-0.8,0.7-1.5,1.5-1.5s1.5,0.7,1.5,1.5v23.4
		C1287.5,692.1,1286.9,692.7,1286,692.7z"/>
	<path class="st14" d="M1313.4,744.8c-3.3,0-6.4-1.3-9-2.4c-0.8-0.3-1.1-1.2-0.8-2c0.3-0.8,1.2-1.1,2-0.8c2.7,1.2,6.1,2.6,9.2,2.1
		c1.6-0.3,3.1-1.3,3.9-2.7c0.4-0.7,0.8-1.7,0.4-2.7c-0.2-0.5-0.1-0.9,0.2-1.3s0.7-0.6,1.2-0.6c7.8-0.2,18.4-4.1,24.9-7.7
		c10.9-6.2,17.2-15.1,16.8-24.1c-0.3-7.3-5.2-13.7-13.5-17.4c-0.8-0.3-1.1-1.2-0.7-2c0.3-0.8,1.2-1.1,2-0.7
		c9.3,4.2,14.9,11.5,15.2,20c0.4,10.1-6.4,20.1-18.3,26.8c-6.4,3.6-16.6,7.4-24.6,8c0,1.1-0.3,2.3-1,3.4c-1.3,2.1-3.6,3.7-6,4.1
		C1314.7,744.7,1314.1,744.8,1313.4,744.8z"/>
	<path class="st14" d="M1285.7,436.7c-0.8,0-1.5-0.7-1.5-1.5v-46.5c0-1.5-0.8-2.9-2.2-3.7l-25.4-14.1c-0.7-0.4-1-1.3-0.6-2
		c0.4-0.7,1.3-1,2-0.6l25.4,14.1c2.3,1.3,3.7,3.7,3.7,6.3v46.5C1287.2,436,1286.5,436.7,1285.7,436.7z"/>
	<path class="st14" d="M1303.7,398c-0.8,0-1.5-0.7-1.5-1.5v-15.4c0-1.6-0.9-3-2.2-3.8l-11.6-6.4c-0.7-0.4-1-1.3-0.6-2
		c0.4-0.7,1.3-1,2-0.6l11.6,6.4c2.3,1.3,3.8,3.8,3.8,6.4v15.4C1305.2,397.4,1304.5,398,1303.7,398z"/>
	<path class="st14" d="M1303.7,453.9c-0.8,0-1.5-0.7-1.5-1.5v-49c0-0.8,0.7-1.5,1.5-1.5s1.5,0.7,1.5,1.5v49
		C1305.2,453.2,1304.5,453.9,1303.7,453.9z"/>
	<path class="st14" d="M1062.7,459.5c-0.5,0-1.1-0.3-1.3-0.8c-0.4-0.7-0.1-1.6,0.7-2l71.7-36.4c0.7-0.4,1.6-0.1,2,0.7
		c0.4,0.7,0.1,1.6-0.7,2l-71.7,36.4C1063.1,459.5,1062.9,459.5,1062.7,459.5z"/>
	<path class="st14" d="M1117.7,448.2c-0.5,0-1.1-0.3-1.3-0.8c-0.4-0.7-0.1-1.6,0.7-2l71.7-36.4c0.7-0.4,1.6-0.1,2,0.7
		c0.4,0.7,0.1,1.6-0.7,2l-71.7,36.4C1118.2,448.1,1118,448.2,1117.7,448.2z"/>
	<path class="st14" d="M1031.3,492.1c-0.5,0-1.1-0.3-1.3-0.8c-0.4-0.7-0.1-1.6,0.7-2l49.4-25.1c0.7-0.4,1.6-0.1,2,0.7
		c0.4,0.7,0.1,1.6-0.7,2L1032,492C1031.8,492.1,1031.6,492.1,1031.3,492.1z"/>
	<path class="st14" d="M891.2,546.4c-0.5,0-1.1-0.3-1.3-0.8c-0.4-0.7-0.1-1.6,0.7-2l71.7-36.4c0.7-0.4,1.6-0.1,2,0.7s0.1,1.6-0.7,2
		l-71.7,36.4C891.6,546.3,891.4,546.4,891.2,546.4z"/>
	<path class="st14" d="M859.8,579c-0.5,0-1.1-0.3-1.3-0.8c-0.4-0.7-0.1-1.6,0.7-2l49.4-25.1c0.7-0.4,1.6-0.1,2,0.7
		c0.4,0.7,0.1,1.6-0.7,2l-49.4,25.1C860.3,578.9,860.1,579,859.8,579z"/>
	<path class="st14" d="M1168.4,802.9c-0.8,0-1.5-0.7-1.5-1.5v-34.3c0-2.9,1.6-5.4,4.2-6.7l12-6c0.7-0.4,1.6-0.1,2,0.7
		c0.4,0.7,0.1,1.6-0.7,2l-12,6c-1.5,0.8-2.5,2.3-2.5,4v34.3C1169.9,802.2,1169.3,802.9,1168.4,802.9z"/>
	<path class="st14" d="M1226.7,735.4c-0.5,0-1.1-0.3-1.3-0.8c-0.4-0.7-0.1-1.6,0.7-2l13.6-7c0.7-0.4,1.6-0.1,2,0.7
		c0.4,0.7,0.1,1.6-0.7,2l-13.6,7C1227.2,735.3,1226.9,735.4,1226.7,735.4z"/>
	<path class="st14" d="M1193.8,752.3c-0.5,0-1.1-0.3-1.3-0.8c-0.4-0.7-0.1-1.6,0.7-2l24.2-12.4c0.7-0.4,1.6-0.1,2,0.7
		c0.4,0.7,0.1,1.6-0.7,2l-24.2,12.4C1194.2,752.2,1194,752.3,1193.8,752.3z"/>
	<path class="st14" d="M1198.4,770.2c-0.5,0-1.1-0.3-1.3-0.8c-0.4-0.7-0.1-1.6,0.7-2l43.7-22.4c0.7-0.4,1.6-0.1,2,0.7
		c0.4,0.7,0.1,1.6-0.7,2l-43.7,22.4C1198.8,770.2,1198.6,770.2,1198.4,770.2z"/>
	<path class="st14" d="M1180.3,827.6c-0.8,0-1.5-0.7-1.5-1.5v-37.6c0-0.8,0.7-1.5,1.5-1.5s1.5,0.7,1.5,1.5v37.6
		C1181.8,826.9,1181.1,827.6,1180.3,827.6z"/>
	<path class="st14" d="M1287,769c-9.8,0-19.6-2.5-28.1-7.6c-0.7-0.4-0.9-1.3-0.5-2.1c0.4-0.7,1.3-0.9,2.1-0.5
		c16.8,10,39.1,9.5,55.4-1.3c0.7-0.5,1.6-0.3,2.1,0.4c0.5,0.7,0.3,1.6-0.4,2.1C1308.5,766,1297.7,769,1287,769z"/>
	<path class="st3" d="M1600,443.7c-3,1.3-6,2.7-9,4.3c-41.5,21.6-68.6,71.8-80.4,124c-30.1,1.5-58,16-78.2,40.9
		c-20.6,25.5-33,61.9-31.2,106.7c-31.8,9.7-51.5,32.8-60.7,57.8c-5.2,14.1-7,28.7-5.7,41.8c4,39.6,39.2,62.2,78,42l187.2-96.7V443.7
		z"/>
	<polygon class="st2" points="958.9,900 1147.1,900 1147.9,875.1 786.1,695.1 786.1,735.7 958.9,826.5 	"/>
	<path class="st2" d="M872.7,900L755.2,710.1l0.9,17.1l-107.7-38.3c0,0,0,41.7,0,85c0,32.5,0,96.2,0,126.1H872.7z"/>
	<g>
		<polygon class="st1" points="766.5,746.8 648.4,688.5 719,654.5 827,714.6 		"/>
		<g>
			<polygon points="834.5,741 774.9,772.8 774.9,761.8 834.5,730.1 			"/>
			<polygon class="st1" points="834.5,730.1 774.9,761.8 766.1,758.2 825.8,726.5 			"/>
			<polygon points="825.7,726.4 766.1,758.1 766.1,747.2 825.7,715.5 			"/>
			<g>
				<polygon points="877.1,803.4 817.4,835.1 817.4,846.1 877.1,814.3 				"/>
				<polygon points="903.2,847.1 843.5,878.8 843.5,889.7 903.2,858 				"/>
				<polygon class="st1" points="894.5,843.5 834.8,875.2 843.5,878.8 903.2,847.1 				"/>
				<polygon points="911.9,872.6 911.9,861.7 852.2,893.4 852.2,900 860.3,900 				"/>
				<polygon class="st1" points="903.2,858 843.5,889.7 852.2,893.4 911.9,861.7 				"/>
				<polygon points="896.4,900 920.6,887.1 920.6,876.2 875.9,900 				"/>
				<polygon class="st1" points="875.9,900 920.6,876.2 911.9,872.6 860.3,900 				"/>
				<polygon points="929.4,900 929.4,890.8 912,900 				"/>
				<polygon class="st1" points="912,900 929.4,890.8 920.6,887.1 896.4,900 				"/>
				<polygon class="st2" points="868.3,799.5 809.3,830.9 809.3,820.2 808.7,820.6 808.7,831.5 868.3,799.8 				"/>
				<polygon class="st1" points="868.3,799.8 808.7,831.5 817.4,835.1 877.1,803.4 				"/>
				<polygon points="885.8,818 826.1,849.7 826.1,860.6 885.8,828.9 				"/>
				<polygon class="st1" points="877.1,814.3 817.4,846.1 826.1,849.7 885.8,818 				"/>
				<polygon points="894.5,832.5 834.8,864.3 834.8,875.2 894.5,843.5 				"/>
				<polygon class="st1" points="885.8,828.9 826.1,860.6 834.8,864.3 894.5,832.5 				"/>
				<polygon points="851.6,759.1 791.9,790.9 791.9,801.8 851.6,770 				"/>
				<polygon points="842.9,744.6 842.7,744.6 842.9,744.7 				"/>
				<polygon points="842.9,744.7 783.2,776.4 783.2,787.2 842.9,755.5 				"/>
				<polygon class="st1" points="842.9,755.5 783.2,787.2 791.9,790.9 851.6,759.1 				"/>
				<polygon points="860.3,773.7 800.6,805.4 800.6,816.3 860.3,784.6 				"/>
				<polygon class="st1" points="851.6,770 791.9,801.8 800.6,805.4 860.3,773.7 				"/>
				<polygon class="st1" points="842.7,744.6 834.2,741.1 774.5,772.8 783.2,776.4 842.9,744.7 				"/>
				<polygon points="868.3,799.5 869,799.2 869,788.2 809.3,820 809.3,820.2 809.3,830.9 				"/>
				<polygon class="st1" points="860.3,784.6 800.6,816.3 809.3,820 869,788.2 				"/>
			</g>
		</g>
	</g>
	<path class="st8" d="M582.4,899.5l1,0.5h193c-2-48-31.8-77.7-66.4-79.5c-7.1-31.7-23.6-62.2-48.8-75.3
		c-36.8-19.1-77.8-7.6-82.4,33.5c-0.1,0.9,0.1,1.9,0.1,2.9c0,0,0,0,0,0c-28.2-14.6-50.2-0.1-49.3,32.5
		C530.6,846.6,554.2,884.8,582.4,899.5z"/>
	<polygon points="1206.1,900 1206.1,845.1 1146.1,875.1 1146.1,900 	"/>
	<g>
		<path class="st3" d="M1488,774c29.3,0,53.9-11.3,53.9-24.7v-41.4H1434v40.9C1434,762.1,1458.7,774,1488,774z"/>
		<ellipse class="st6" cx="1488" cy="707.8" rx="53.9" ry="26.4"/>
		<path class="st4" d="M1488,824.6c29.3,0,53.9-11.3,53.9-24.7v-41.1c-9.9,10.1-30.1,19.9-53.9,19.9c-23.8,0-44-9.8-53.9-19.9v40.5
			C1434,812.8,1458.7,824.6,1488,824.6z"/>
		<path class="st5" d="M1488,831c-23.8,0-44-11.3-53.9-21.4V850c0,13.5,24.6,25.3,53.9,25.3c29.3,0,53.9-11.3,53.9-24.7v-41.1
			C1532,819.7,1511.8,831,1488,831z"/>
		<ellipse class="st6" cx="1529.9" cy="742.9" rx="2.5" ry="4.5"/>
		<ellipse class="st6" cx="1529.9" cy="791.5" rx="2.5" ry="4.5"/>
		<ellipse class="st7" cx="1529.9" cy="844.2" rx="2.5" ry="4.5"/>
		<path class="st8" d="M1488,824.6c-25.1,0-46.8-8.7-52.4-19.6c-0.9,1.5-1.5,3.2-1.5,4.8v0.2c0,2.3,0.7,4.8,2.8,6.6
			c10.6,8.7,29.3,14.4,51.1,14.4c0,0,0,0,0,0c21.8,0,40.5-5.7,51.1-14.4c2.5-2.8,2.8-4.4,2.8-6.7c0-1.6-0.5-3.1-1.3-4.6
			C1535.1,816.2,1513.3,824.6,1488,824.6z"/>
		<path class="st8" d="M1488,773.9c-25.1,0-46.8-8.7-52.4-19.6c-0.9,1.5-1.5,3.2-1.5,4.8v0.2c0,2.3,0.7,4.8,2.8,6.6
			c10.6,8.7,29.3,14.4,51.1,14.4c0,0,0,0,0,0c21.8,0,40.5-5.7,51.1-14.4c2.5-2.8,2.8-4.4,2.8-6.7c0-1.6-0.5-3.1-1.3-4.6
			C1535.1,765.5,1513.3,773.9,1488,773.9z"/>
		<g>
			<path class="st4" d="M1541.9,860.6c0,2.4-0.3,4-2.8,6.7c-10.6,8.7-29.3,14.4-51.1,14.4c0,0,0,0,0,0c-21.8,0-40.5-5.7-51.1-14.4
				c-2.1-1.9-2.8-4.3-2.8-6.6V900h107.8V860.6z"/>
			<path class="st4" d="M1434,860.3v0.2C1434,860.5,1434.1,860.4,1434,860.3C1434.1,860.3,1434,860.3,1434,860.3z"/>
			<path class="st4" d="M1541.9,860.3C1541.9,860.3,1541.8,860.3,1541.9,860.3c0,0.1,0,0.2,0,0.3V860.3z"/>
			<path class="st8" d="M1436.8,867.4c10.6,8.7,29.3,14.4,51.1,14.4c0,0,0,0,0,0c21.8,0,40.5-5.7,51.1-14.4c2.5-2.8,2.8-4.4,2.8-6.7
				c0-0.1,0-0.2,0-0.3c-0.1-1.5-0.5-2.9-1.3-4.3c-5.5,11-27.3,19.4-52.6,19.4c-25.1,0-46.8-8.7-52.4-19.6c-0.9,1.5-1.4,3-1.5,4.6
				c0,0.1,0,0.2,0,0.2v0.2C1434.1,863,1434.7,865.5,1436.8,867.4z"/>
		</g>
	</g>
	<g id="XMLID_566_">
		<polygon id="XMLID_569_" class="st10" points="951.2,567.7 939.8,592.9 955.9,615.4 967.3,590.2 		"/>
		<polygon id="XMLID_568_" class="st11" points="951.2,567.7 978.8,565 994.9,587.5 967.3,590.2 		"/>
		<polygon id="XMLID_567_" class="st12" points="955.9,615.4 983.4,612.7 994.9,587.5 967.3,590.2 		"/>
	</g>
	<g id="XMLID_570_">
		<polygon id="XMLID_573_" class="st10" points="1140.2,543.1 1150.2,558.7 1168.7,557.8 1158.7,542.3 		"/>
		<polygon id="XMLID_572_" class="st11" points="1140.2,543.1 1148.7,526.7 1167.1,525.9 1158.7,542.3 		"/>
		<polygon id="XMLID_571_" class="st12" points="1168.7,557.8 1177.1,541.4 1167.1,525.9 1158.7,542.3 		"/>
	</g>
	<path id="cloud_91_" class="st1" d="M506.7,481.6c10.1-5.8,18.9-3.7,23.2,4.4c1.4-1.2,2.9-2.2,4.4-3.1c8.9-5.2,16.5-3,19.4,4.6
		c1.3-1.3,2.8-2.3,4.2-3.2c7.8-4.5,14.1-0.9,14.1,8.1c0,9-6.3,19.9-14.1,24.4l-51.2,29.6c-14.3,8.3-26,0.5-26-17.4
		S492.3,489.9,506.7,481.6z"/>
	<path id="cloud_92_" class="st1" d="M1450.1,565.1c14.3-6.9,25.9-3.1,30.9,8.2c2-1.5,4.2-2.7,6.3-3.8c12.6-6.1,22.7-2.4,25.8,8.1
		c1.9-1.6,4-2.9,6.1-3.9c11-5.3,19.2,0.3,18.3,12.4c-0.9,12.2-10.5,26.3-21.5,31.6l-72.2,34.9c-20.2,9.8-35.2-1.9-33.4-26.1
		S1429.9,574.9,1450.1,565.1z"/>
	<g>
		<polygon class="st1" points="1518.2,358.9 1457.7,389.7 1448.9,386.2 1509.3,355.4 		"/>
		<polygon points="1500.5,341.3 1440.1,372 1440.1,361.4 1500.5,330.7 		"/>
		<polygon class="st1" points="1500.5,330.7 1440.1,361.4 1437.8,351.4 1491.7,327.2 		"/>
		<polygon points="1509.3,355.4 1448.9,386.2 1448.9,375.6 1509.3,344.8 		"/>
		<polygon class="st1" points="1509.3,344.8 1448.9,375.6 1440.1,372 1500.5,341.3 		"/>
	</g>
	<g>
		<path class="st22" d="M1317.8,209.3c0-5.4,3.8-7.6,8.5-4.9l52.9,30c4.7,2.7,8.6,9.2,8.6,14.6l0,7.6l-69.9-39.6L1317.8,209.3z"/>
		<g>
			<path class="st1" d="M1323.6,207.3c0.3-0.2,0.8-0.1,1.2,0.1c0.4,0.3,0.9,0.7,1.2,1.3l1.8,3l1.7-1c0.3-0.2,0.8-0.1,1.2,0.1
				c0.4,0.3,0.9,0.7,1.2,1.3c0.7,1.1,0.7,2.4,0,2.8l-1.8,1l1.8,3c0.7,1.1,0.7,2.4,0,2.8c-0.3,0.2-0.8,0.1-1.2-0.1
				c-0.4-0.3-0.9-0.7-1.2-1.3l-1.8-3l-1.7,1c-0.3,0.2-0.8,0.1-1.2-0.1c-0.4-0.3-0.9-0.7-1.2-1.3c-0.7-1.1-0.7-2.4,0-2.8l1.8-1
				l-1.8-3C1322.9,208.9,1322.9,207.7,1323.6,207.3z"/>
		</g>
		<path class="st1" d="M1379.7,314.8l-26.9-15.2l-14.4-8.1l-11.6-6.5c-4.7-2.7-8.6-9.2-8.6-14.6l-0.4-60.9c0-5.4,3.8-7.6,8.5-5
			l53,29.9c4.7,2.7,8.6,9.2,8.6,14.6l0.4,60.9C1388.2,315.2,1384.4,317.4,1379.7,314.8z"/>
		<path class="st8" d="M1389.7,309.8l-0.4-60.9c0-6-4.2-13-9.4-15.9l-53-29.9c-2.8-1.6-5.5-1.8-7.6-0.5c-2.1,1.2-3.2,3.6-3.2,6.8
			l0.4,60.9c0,6,4.2,13,9.4,15.9l10.8,6.1l16.1,9.1l26,14.7c1.6,0.9,3.2,1.3,4.6,1.3c1.1,0,2.1-0.3,3-0.8
			C1388.6,315.4,1389.7,313,1389.7,309.8z"/>
		<g>
			<g>
				<path class="st1" d="M1334.7,249.2c-0.3,0.2-0.8,0.2-1.2-0.1c-0.4-0.2-0.8-0.6-1.1-1.1l-5.7-9.2c-0.3-0.5-0.5-1.1-0.5-1.6
					c0-0.5,0.2-0.9,0.5-1.1l5.6-2.8c0.3-0.2,0.7-0.1,1.1,0.1c0.4,0.2,0.9,0.7,1.2,1.3c0.6,1.1,0.6,2.2-0.1,2.6l-4.3,2.2l4.4,7.1
					C1335.2,247.6,1335.3,248.8,1334.7,249.2z"/>
			</g>
			<g>
				<path class="st1" d="M1376.7,294.1l-48-26.8c-0.9-0.5-1.6-1.7-1.6-2.8c0-1,0.7-1.4,1.6-0.9l48,26.8c0.9,0.5,1.6,1.7,1.6,2.8
					C1378.3,294.2,1377.6,294.6,1376.7,294.1z"/>
			</g>
			<g>
				<path class="st1" d="M1376.5,282l-12.4-7c-0.9-0.5-1.6-1.7-1.6-2.8c0-1,0.7-1.4,1.6-0.9l12.4,7c0.9,0.5,1.6,1.7,1.6,2.8
					C1378.1,282.1,1377.4,282.5,1376.5,282z"/>
			</g>
			<g>
				<path class="st1" d="M1369.5,254.2c0.3-0.2,0.8-0.2,1.2,0.1c0.4,0.2,0.8,0.6,1.1,1.1l5.7,9.2c0.3,0.5,0.5,1.1,0.5,1.6
					c0,0.5-0.2,0.9-0.5,1.1l-5.6,2.8c-0.3,0.1-0.7,0.1-1.1-0.1c-0.4-0.2-0.9-0.7-1.2-1.3c-0.6-1.1-0.6-2.2,0.1-2.6l4.4-2.2l-4.4-7.1
					C1368.9,255.8,1368.9,254.6,1369.5,254.2z"/>
			</g>
			<g>
				<path class="st1" d="M1340.9,262.1l-12.4-7c-0.9-0.5-1.6-1.7-1.6-2.8c0-1,0.7-1.4,1.6-0.9l12.4,7c0.9,0.5,1.6,1.7,1.6,2.8
					C1342.5,262.2,1341.8,262.6,1340.9,262.1z"/>
			</g>
			<g>
				<path class="st1" d="M1356.2,270.5l-6.7-3.6c-0.9-0.5-1.6-1.7-1.6-2.8c0-1,0.7-1.4,1.6-0.9l6.7,3.6c0.9,0.5,1.6,1.7,1.6,2.8
					C1357.8,270.6,1357.1,271.1,1356.2,270.5z"/>
			</g>
			<g>
				<path class="st1" d="M1367,261.8l-29.6-16.5c-0.9-0.5-1.6-1.7-1.6-2.8c0-1,0.7-1.4,1.6-0.9l29.6,16.5c0.9,0.5,1.6,1.7,1.6,2.8
					C1368.6,261.9,1367.8,262.3,1367,261.8z"/>
			</g>
		</g>
	</g>
	<g>
		<g>
			<polygon class="st8" points="1444.1,305.2 1467.5,320 1445.2,331.1 1421.8,316.3 			"/>
			<g>
				<polygon class="st8" points="1437.4,348.3 1438.5,349.6 1415.1,334.8 1413.9,333.5 1413.2,331.6 1413.1,329.3 1413.5,326.8 
					1414.5,324.2 1415.9,321.7 1417.7,319.4 1419.7,317.6 1421.8,316.3 1445.2,331.1 1443.1,332.4 1441.1,334.3 1439.3,336.5 
					1437.9,339 1437,341.7 1436.6,344.2 1436.7,346.4 				"/>
				<polygon class="st8" points="1467.5,320 1444.1,305.2 1446.2,304.5 1448.1,304.5 1449.6,305.2 1473.1,320 1471.5,319.3 
					1469.6,319.3 				"/>
			</g>
			<path class="st23" d="M1473.7,330.6l0.9-2.6l0.4-2.5l-0.1-2.3l-0.7-1.8l-1.2-1.3l-1.6-0.7l-1.9,0l-2.1,0.7l-22.3,11.1l-2.1,1.3
				l-2,1.8l-1.8,2.3l-1.4,2.5l-0.9,2.6l-0.4,2.5l0.1,2.3l0.7,1.8l1.2,1.3l1.6,0.7l1.9,0l2.1-0.7l22.3-11.1l2.1-1.3l2-1.8l1.8-2.3
				L1473.7,330.6z M1449.1,339.6l-0.2,1.3l-0.5,1.3l-0.7,1.3l-0.9,1.1l-1,0.9l-1.1,0.7l-1,0.3l-0.9,0l-0.8-0.3l-0.6-0.7l-0.3-0.9
				l-0.1-1.1l0.2-1.3l0.5-1.3l0.7-1.3l0.9-1.1l1-0.9l1.1-0.7l1-0.3l0.9,0l0.8,0.3l0.6,0.7l0.3,0.9L1449.1,339.6z M1471.8,327.3
				l-0.2,1.4l-0.5,1.4l-0.8,1.4l-1,1.3l-1.1,1l-1.2,0.7l-1.1,0.4l-1.1,0l-0.9-0.4l-0.7-0.7l-0.4-1l-0.1-1.2l0.2-1.4l0.5-1.4l0.8-1.4
				l1-1.3l1.1-1l1.2-0.7l1.1-0.4l1.1,0l0.9,0.4l0.7,0.7l0.4,1L1471.8,327.3z"/>
			<polygon points="1447.7,343.4 1446.8,344.5 1445.8,345.5 1444.7,346.1 1443.7,346.4 1442.8,346.4 1442,346.1 1441.4,345.5 
				1441,344.5 1441,343.4 1441.2,342.1 1441.7,340.8 1442.4,339.6 1443.2,338.4 1444.3,337.5 1445.3,336.9 1446.4,336.5 
				1447.3,336.5 1448.1,336.9 1448.7,337.5 1449,338.4 1449.1,339.6 1448.9,340.8 1448.4,342.1 			"/>
			<polygon points="1470.3,331.5 1469.3,332.8 1468.2,333.8 1467.1,334.5 1465.9,334.9 1464.9,334.9 1464,334.6 1463.3,333.9 
				1463,332.9 1462.9,331.6 1463.1,330.3 1463.6,328.8 1464.4,327.4 1465.3,326.2 1466.4,325.2 1467.6,324.4 1468.7,324 1469.8,324 
				1470.7,324.4 1471.3,325.1 1471.7,326.1 1471.8,327.3 1471.6,328.7 1471.1,330.1 			"/>
		</g>
		<g>
			<path d="M1448.5,330.2c-4.1,2-9,1.7-12.8-0.8l-28.4-18.8c-3.5-2.3-5.6-6.4-5.3-10.6l2-33.2c0.2-3.9,2.6-7.5,6.1-9.2l27.1-13.5
				c6.4-3.2,14.1-2.7,20.1,1.2l23.1,15.3c4.6,3,7.2,8.3,6.9,13.8l-1.7,28.1c-0.4,5.8-3.8,11-9,13.6L1448.5,330.2z"/>
			<path class="st22" d="M1455.6,317.6l-3.2,1.6c-6.2,3.1-13.5,2.6-19.3-1.2l-28.7-19.1l1.9-30.8l28.7,19.1
				c5.8,3.8,13.1,4.3,19.3,1.2l7.4-3.7c3.9-1.9,8.5,1.1,8.2,5.4l-0.4,6.5c-0.3,4.4-1.7,8.6-4.1,12.3
				C1462.9,312.7,1459.6,315.7,1455.6,317.6z"/>
		</g>
		<path d="M1460.2,262.2l-14.8-64c5.3-5.7,9-13.5,9.4-20.4c0.3-5.1-1.3-8.8-4.1-10.7c0,0,0,0,0,0l-6.5-4.4
			c-2.8-1.9-6.9-1.9-11.6,0.4c-2.5,1.2-4.9,3-7,5.1l-42.5-16.7c0.4-1.4,0.7-2.9,0.8-4.3c0.2-3.6-0.9-6.2-2.9-7.5c0,0,0,0,0,0l-4.6-3
			c-2-1.3-4.8-1.3-8.1,0.3c-6.5,3.2-12.1,11.7-12.5,18.8c-0.2,3.6,0.9,6.2,2.9,7.5l3.3,2.2l0.6,27.7l-2.9,1.5l-16.9,24.4l-0.7,12
			l5.1,7.4l4.6,3.1l3.9-2l0.9-16l12.5-14.9l6.6,1.7l-0.8,14.2l4.6,3.1l3.9-2l6.3-13.1l0.7-12l-4.6-3.1l-13.5-7.7l4.5-27.8l-0.1-0.1
			c0.8-0.8,1.5-1.7,2.2-2.6l37,24.2c-0.7,2.2-1.1,4.3-1.2,6.4c-0.3,5.1,1.3,8.8,4.1,10.7l6,4l4.1,62.5L1460.2,262.2z M1360.4,160.3
			c0-0.4,0-0.8,0-1.3C1360.4,159.4,1360.4,159.9,1360.4,160.3z M1360.5,161.5c0-0.3-0.1-0.5-0.1-0.8
			C1360.4,161,1360.5,161.2,1360.5,161.5z M1360.7,162.6c-0.1-0.2-0.1-0.5-0.1-0.7C1360.6,162.1,1360.7,162.4,1360.7,162.6z
			 M1361,163.6c-0.1-0.2-0.1-0.4-0.2-0.6C1360.9,163.2,1361,163.4,1361,163.6z M1361.5,164.5c-0.1-0.2-0.2-0.3-0.2-0.5
			C1361.3,164.2,1361.4,164.3,1361.5,164.5z M1362,165.3c-0.1-0.1-0.2-0.3-0.3-0.4C1361.8,165,1361.9,165.1,1362,165.3z
			 M1374.4,139.5c-0.1,0-0.2,0.1-0.3,0.1C1374.2,139.6,1374.3,139.6,1374.4,139.5z M1375.7,139.2c-0.1,0-0.3,0.1-0.4,0.1
			C1375.4,139.2,1375.5,139.2,1375.7,139.2z M1376.8,139c-0.1,0-0.3,0-0.4,0C1376.5,139,1376.7,139,1376.8,139z M1377.8,138.9
			c-0.1,0-0.3,0-0.4,0C1377.6,138.9,1377.7,138.9,1377.8,138.9z M1378.8,139c-0.1,0-0.3-0.1-0.4-0.1
			C1378.5,139,1378.7,139,1378.8,139z M1379.7,139.3c-0.1,0-0.3-0.1-0.4-0.1C1379.5,139.2,1379.6,139.2,1379.7,139.3z M1380.6,139.6
			c-0.1-0.1-0.2-0.1-0.4-0.2C1380.3,139.5,1380.4,139.6,1380.6,139.6z M1421.3,196.3c0-0.6,0-1.2,0-1.9
			C1421.2,195.1,1421.2,195.8,1421.3,196.3z M1421.4,198.1c-0.1-0.4-0.1-0.8-0.1-1.2C1421.3,197.3,1421.4,197.7,1421.4,198.1z
			 M1421.7,199.6c-0.1-0.3-0.1-0.6-0.2-0.9C1421.6,199,1421.6,199.3,1421.7,199.6z M1422.2,201.1c-0.1-0.3-0.2-0.5-0.3-0.8
			C1422,200.5,1422.1,200.8,1422.2,201.1z M1422.8,202.3c-0.1-0.2-0.2-0.5-0.3-0.7C1422.6,201.9,1422.7,202.1,1422.8,202.3z
			 M1423.5,203.5c-0.1-0.2-0.3-0.4-0.4-0.6C1423.2,203,1423.4,203.3,1423.5,203.5z M1424.4,204.4c-0.2-0.2-0.3-0.3-0.5-0.5
			C1424.1,204.1,1424.2,204.3,1424.4,204.4z M1441.4,166.6c-0.2,0.1-0.4,0.1-0.6,0.2C1441,166.7,1441.2,166.7,1441.4,166.6z
			 M1443.2,166.1c-0.2,0-0.4,0.1-0.7,0.1C1442.7,166.2,1442.9,166.1,1443.2,166.1z M1444.7,165.8c-0.2,0-0.4,0-0.6,0.1
			C1444.3,165.8,1444.5,165.8,1444.7,165.8z M1446.2,165.8c-0.2,0-0.4,0-0.6,0C1445.8,165.7,1446,165.8,1446.2,165.8z M1449.6,166.5
			c0.2,0.1,0.3,0.2,0.5,0.3C1449.9,166.7,1449.8,166.6,1449.6,166.5z M1448.4,166c0.2,0.1,0.4,0.1,0.6,0.2
			C1448.7,166.2,1448.6,166.1,1448.4,166z M1447,165.8c0.2,0,0.4,0.1,0.6,0.1C1447.4,165.9,1447.2,165.8,1447,165.8z"/>
		<path class="st8" d="M1367.4,155.5c0.2-2.9,2.4-6.3,5-7.6c2.6-1.3,4.6,0,4.4,2.9c-0.2,2.9-2.4,6.3-5,7.6
			C1369.2,159.7,1367.3,158.4,1367.4,155.5z"/>
		<path class="st8" d="M1431.8,186.9c0.8-2.6,2.3-4.9,4.4-6.7c5.5-4.6,10.1-1.6,8.1,5.2c-0.8,2.6-2.3,5-4.4,6.7
			C1434.3,196.8,1429.7,193.7,1431.8,186.9z"/>
	</g>
</g>
</svg>
